REM DIRINDEX 1\2,1\4,1\5,1\6,1\7,1\3\8,1\3\9,1\3\10
REM DIRNAME folder01,folder02,folder03,folder04,folder05,folder06,folder07,folder08,folder09,folder10
TITLE ""
FILE "DB4500_5th_4B_32.mp3" MP3
  TRACK 01 AUDIO
    TITLE "8:cjc113_2953"
    INDEX 01 00:00:00
  TRACK 02 AUDIO
    TITLE "0:"
    INDEX 01 00:01:13
  TRACK 03 AUDIO
    TITLE "9:cjc113_2954"
    INDEX 01 00:01:36
  TRACK 04 AUDIO
    TITLE "0:"
    INDEX 01 00:02:57
  TRACK 05 AUDIO
    TITLE "10:cjc113_2955"
    INDEX 01 00:03:04
  TRACK 06 AUDIO
    TITLE "0:"
    INDEX 01 00:06:02
  TRACK 07 AUDIO
    TITLE "8:cjc113_2956"
    INDEX 01 00:06:49
  TRACK 08 AUDIO
    TITLE "0:"
    INDEX 01 00:07:68
  TRACK 09 AUDIO
    TITLE "9:cjc113_2957"
    INDEX 01 00:08:15
  TRACK 10 AUDIO
    TITLE "0:"
    INDEX 01 00:09:44
  TRACK 11 AUDIO
    TITLE "10:cjc113_2958"
    INDEX 01 00:09:67
  TRACK 12 AUDIO
    TITLE "0:"
    INDEX 01 00:14:13
  TRACK 13 AUDIO
    TITLE "8:cjc113_2959"
    INDEX 01 00:14:60
  TRACK 14 AUDIO
    TITLE "0:"
    INDEX 01 00:15:68
  TRACK 15 AUDIO
    TITLE "9:cjc113_2960"
    INDEX 01 00:16:14
  TRACK 16 AUDIO
    TITLE "0:"
    INDEX 01 00:17:37
  TRACK 17 AUDIO
    TITLE "10:cjc113_2961"
    INDEX 01 00:17:59
  TRACK 18 AUDIO
    TITLE "0:"
    INDEX 01 00:20:59
  TRACK 19 AUDIO
    TITLE "8:cjc113_2962"
    INDEX 01 00:21:35
  TRACK 20 AUDIO
    TITLE "0:"
    INDEX 01 00:22:48
  TRACK 21 AUDIO
    TITLE "9:cjc113_2963"
    INDEX 01 00:22:72
  TRACK 22 AUDIO
    TITLE "0:"
    INDEX 01 00:24:41
  TRACK 23 AUDIO
    TITLE "10:cjc113_2964"
    INDEX 01 00:24:65
  TRACK 24 AUDIO
    TITLE "0:"
    INDEX 01 00:27:65
  TRACK 25 AUDIO
    TITLE "8:cjc113_2965"
    INDEX 01 00:28:39
  TRACK 26 AUDIO
    TITLE "0:"
    INDEX 01 00:29:48
  TRACK 27 AUDIO
    TITLE "9:cjc113_2966"
    INDEX 01 00:29:70
  TRACK 28 AUDIO
    TITLE "0:"
    INDEX 01 00:32:11
  TRACK 29 AUDIO
    TITLE "10:cjc113_2967"
    INDEX 01 00:32:35
  TRACK 30 AUDIO
    TITLE "0:"
    INDEX 01 00:34:65
  TRACK 31 AUDIO
    TITLE "10:cjc113_2968"
    INDEX 01 00:35:37
  TRACK 32 AUDIO
    TITLE "0:"
    INDEX 01 00:38:30
  TRACK 33 AUDIO
    TITLE "8:cjc113_2969"
    INDEX 01 00:39:02
  TRACK 34 AUDIO
    TITLE "0:"
    INDEX 01 00:40:17
  TRACK 35 AUDIO
    TITLE "9:cjc113_2970"
    INDEX 01 00:40:40
  TRACK 36 AUDIO
    TITLE "0:"
    INDEX 01 00:41:71
  TRACK 37 AUDIO
    TITLE "10:cjc113_2971"
    INDEX 01 00:42:19
  TRACK 38 AUDIO
    TITLE "0:"
    INDEX 01 00:44:73
  TRACK 39 AUDIO
    TITLE "8:cjc113_2972"
    INDEX 01 00:45:53
  TRACK 40 AUDIO
    TITLE "0:"
    INDEX 01 00:47:17
  TRACK 41 AUDIO
    TITLE "9:cjc113_2973"
    INDEX 01 00:47:34
  TRACK 42 AUDIO
    TITLE "0:"
    INDEX 01 00:48:44
  TRACK 43 AUDIO
    TITLE "10:cjc113_2974"
    INDEX 01 00:48:65
  TRACK 44 AUDIO
    TITLE "0:"
    INDEX 01 00:52:39
  TRACK 45 AUDIO
    TITLE "8:cjc113_2975"
    INDEX 01 00:53:08
  TRACK 46 AUDIO
    TITLE "0:"
    INDEX 01 00:54:17
  TRACK 47 AUDIO
    TITLE "9:cjc113_2976"
    INDEX 01 00:54:34
  TRACK 48 AUDIO
    TITLE "0:"
    INDEX 01 00:56:20
  TRACK 49 AUDIO
    TITLE "10:cjc113_2977"
    INDEX 01 00:56:35
  TRACK 50 AUDIO
    TITLE "0:"
    INDEX 01 00:59:32
  TRACK 51 AUDIO
    TITLE "8:cjc113_2978"
    INDEX 01 01:00:02
  TRACK 52 AUDIO
    TITLE "0:"
    INDEX 01 01:01:19
  TRACK 53 AUDIO
    TITLE "9:cjc113_2979"
    INDEX 01 01:01:36
  TRACK 54 AUDIO
    TITLE "0:"
    INDEX 01 01:03:08
  TRACK 55 AUDIO
    TITLE "10:cjc113_2980"
    INDEX 01 01:03:27
  TRACK 56 AUDIO
    TITLE "0:"
    INDEX 01 01:07:21
  TRACK 57 AUDIO
    TITLE "8:cjc113_2981"
    INDEX 01 01:07:64
  TRACK 58 AUDIO
    TITLE "0:"
    INDEX 01 01:09:14
  TRACK 59 AUDIO
    TITLE "9:cjc113_2982"
    INDEX 01 01:09:30
  TRACK 60 AUDIO
    TITLE "0:"
    INDEX 01 01:11:07
  TRACK 61 AUDIO
    TITLE "10:cjc113_2983"
    INDEX 01 01:11:25
  TRACK 62 AUDIO
    TITLE "0:"
    INDEX 01 01:15:01
  TRACK 63 AUDIO
    TITLE "8:cjc113_2984"
    INDEX 01 01:15:42
  TRACK 64 AUDIO
    TITLE "0:"
    INDEX 01 01:17:08
  TRACK 65 AUDIO
    TITLE "9:cjc113_2985"
    INDEX 01 01:17:24
  TRACK 66 AUDIO
    TITLE "0:"
    INDEX 01 01:19:17
  TRACK 67 AUDIO
    TITLE "10:cjc113_2986"
    INDEX 01 01:19:36
  TRACK 68 AUDIO
    TITLE "0:"
    INDEX 01 01:24:36
  TRACK 69 AUDIO
    TITLE "8:cjc113_2987"
    INDEX 01 01:24:73
  TRACK 70 AUDIO
    TITLE "0:"
    INDEX 01 01:26:17
  TRACK 71 AUDIO
    TITLE "9:cjc113_2988"
    INDEX 01 01:26:34
  TRACK 72 AUDIO
    TITLE "0:"
    INDEX 01 01:27:65
  TRACK 73 AUDIO
    TITLE "10:cjc113_2989"
    INDEX 01 01:28:04
  TRACK 74 AUDIO
    TITLE "0:"
    INDEX 01 01:31:43
